<svg width="56" height="57" viewBox="0 0 56 57" fill="none" xmlns="http://www.w3.org/2000/svg">
<path d="M43 53.9521C49.6274 53.9521 55 48.5796 55 41.9521C55 35.3247 49.6274 29.9521 43 29.9521C36.3726 29.9521 31 35.3247 31 41.9521C31 48.5796 36.3726 53.9521 43 53.9521Z" fill="#43CDD7"/>
<path d="M43 33.541C40.4505 33.541 38.3762 35.6155 38.3762 38.1654C38.3762 38.759 38.8572 39.2401 39.4502 39.2401C40.0433 39.2401 40.5242 38.759 40.5242 38.1654C40.5242 36.8007 41.6349 35.6905 43 35.6905C44.3651 35.6905 45.4756 36.8007 45.4756 38.1654C45.4756 39.5301 44.3651 40.6403 43 40.6403C42.407 40.6403 41.926 41.1216 41.926 41.715V44.2788C41.926 44.8723 42.407 45.3535 43 45.3535C43.5931 45.3535 44.074 44.8723 44.074 44.2788V42.6638C46.1075 42.1782 47.6236 40.3457 47.6236 38.1653C47.6235 35.6155 45.5494 33.541 43 33.541Z" fill="#5531D2"/>
<path d="M43.0003 47.499C42.7167 47.499 42.4407 47.6139 42.241 47.8139C42.0413 48.0127 41.9263 48.29 41.9263 48.5737C41.9263 48.8564 42.0412 49.1325 42.241 49.3335C42.4407 49.5334 42.7168 49.6485 43.0003 49.6485C43.2827 49.6485 43.5598 49.5335 43.7596 49.3335C43.9593 49.1325 44.0743 48.8564 44.0743 48.5737C44.0743 48.291 43.9594 48.0137 43.7596 47.8139C43.5598 47.6129 43.2826 47.499 43.0003 47.499Z" fill="#5531D2"/>
<path d="M28.713 22.9403L29.1493 23.3768C29.5765 23.804 30.2688 23.8041 30.6962 23.377C31.1233 22.95 31.1234 22.2574 30.6964 21.8302L30.2346 21.3683C29.4339 20.5335 27.9929 20.5335 27.1922 21.3683C26.7652 21.7956 26.7653 22.4881 27.1926 22.9151C27.6109 23.3336 28.2842 23.3419 28.713 22.9403Z" fill="#5531D2"/>
<path d="M19.8729 21.3683C19.0722 20.5335 17.6312 20.5335 16.8305 21.3683L16.3688 21.8302C15.9418 22.2574 15.9419 22.95 16.369 23.377C16.7962 23.8041 17.4888 23.8039 17.9159 23.3768L18.3522 22.9403C18.7809 23.342 19.4541 23.3335 19.8726 22.9151C20.2999 22.4881 20.3 21.7956 19.8729 21.3683Z" fill="#5531D2"/>
<path d="M27.02 28.7327C27.4468 28.3052 27.4461 27.6127 27.0187 27.1859C26.5913 26.7593 25.8988 26.7597 25.4718 27.1872C24.4505 28.2532 22.6145 28.2532 21.5932 27.1872C21.1667 26.7598 20.4741 26.759 20.0463 27.1859C19.6189 27.6127 19.6182 28.3052 20.045 28.7327C21.8808 30.6492 25.1844 30.6491 27.02 28.7327Z" fill="#5531D2"/>
<path d="M32.7503 37.6198H26.9896C26.8741 37.2194 26.8902 36.3005 27.0199 35.3589C31.5856 34.9851 34.8562 31.8312 35.6226 27.0477C38.8965 26.0362 39.1821 21.4789 36.0731 20.0495C37.2745 17.1548 38.9814 11.6367 36.35 8.23063C36.3363 8.20919 36.3198 8.18152 36.3 8.14925C35.2704 6.27522 33.0847 4.90672 30.8535 7.12966C30.5144 7.46424 30.3627 7.54911 30.2977 7.56727C30.2198 7.52702 29.739 7.21705 29.099 5.50369C28.534 3.9906 27.4696 2.85922 26.1022 2.31803C24.2956 1.60316 22.0542 1.89639 19.4407 3.1903C17.1318 4.33338 15.8515 4.27169 14.2942 4.0595C12.5226 3.81855 10.841 4.9403 10.383 6.66941L10.3137 6.93049C9.2213 11.047 8.4268 14.0411 11.2708 19.9345C7.91908 21.1718 8.02692 25.9737 11.434 27.0451C11.768 29.2191 12.6139 31.0998 13.9046 32.5216C15.428 34.1998 17.5375 35.1719 20.0456 35.3619C20.175 36.3026 20.1908 37.2199 20.0755 37.6198H14.3148C10.2814 37.6198 7 40.9011 7 44.9344V54.8538C7 55.4579 7.48978 55.9475 8.09375 55.9475H38.9713C39.5753 55.9475 40.065 55.4579 40.065 54.8538V44.9344C40.065 40.9011 36.7837 37.6198 32.7503 37.6198ZM12.4281 7.49158L12.4976 7.22952C12.6735 6.5655 13.3197 6.13413 13.9991 6.2271C15.7507 6.46575 17.5594 6.56288 20.4113 5.15085C22.4179 4.1575 24.1073 3.88122 25.2973 4.35219C26.3027 4.7501 26.8053 5.61427 27.0499 6.2691C27.8341 8.36888 28.7191 9.46164 29.8352 9.70807C31.0776 9.98216 31.9973 9.07435 32.3901 8.68672C32.6016 8.47792 33.0058 8.13317 33.3179 8.17211C33.6285 8.21017 34.0038 8.58599 34.4331 9.28916C34.4992 9.39722 34.5467 9.47531 34.6078 9.55352C35.8913 11.1984 35.6804 13.7871 35.118 16.0262C34.9882 15.9719 34.8456 15.9418 34.696 15.9418H34.4168C31.827 15.9418 29.4012 14.7919 27.761 12.787C27.3491 12.2574 26.4797 12.2574 26.0679 12.787C24.4279 14.7919 22.002 15.9418 19.4122 15.9418H12.369C12.254 15.9418 12.1434 15.9595 12.0392 15.9924C11.0411 12.7183 11.6096 10.576 12.4281 7.49158ZM13.4626 18.1293H19.4122C22.2404 18.1293 24.9127 17.0362 26.9145 15.0937C28.723 16.8486 31.0786 17.9102 33.6023 18.0989V20.8084C33.6023 21.3835 34.0476 21.8604 34.6212 21.8997C36.5681 22.0957 36.5421 24.8742 34.5879 25.0249C34.0449 25.0506 33.6033 25.4712 33.551 26.0122C33.2143 29.4913 31.0787 33.2088 26.0946 33.2088C25.5792 33.2088 25.1338 33.5686 25.0254 34.0723C25.0178 34.1076 24.8385 34.9469 24.7603 35.9211C24.6363 37.4642 24.8206 38.4823 25.3399 39.1255C25.6485 39.5076 26.071 39.7406 26.5461 39.7949C25.7246 42.9022 21.3393 42.9001 20.519 39.7949C20.9941 39.7406 21.4166 39.5076 21.7252 39.1255C22.2445 38.4823 22.4288 37.4642 22.3047 35.9211C22.2265 34.9469 22.0473 34.1076 22.0396 34.0723C21.9312 33.5686 21.4858 33.2088 20.9705 33.2088C14.8306 33.2088 13.7087 28.18 13.5114 26.018C13.4619 25.4749 13.0199 25.0514 12.4752 25.0248C10.5211 24.871 10.4992 22.0948 12.4437 21.8997C13.0174 21.8604 13.4626 21.3835 13.4626 20.8084V18.1293ZM37.8775 53.76H34.1591V45.7865C34.1014 44.3353 32.0289 44.3364 31.9716 45.7865V53.76H15.0935V45.7865C15.0358 44.3353 12.9633 44.3364 12.906 45.7865V53.76H9.1875V44.9344C9.1875 42.1073 11.4875 39.8074 14.3148 39.8074H18.2932C19.3175 45.8024 27.7499 45.798 28.7719 39.8074H32.7503C35.5775 39.8074 37.8775 42.1073 37.8775 44.9344V53.76Z" fill="#5531D2"/>
</svg>
