<svg width="56" height="57" viewBox="0 0 56 57" fill="none" xmlns="http://www.w3.org/2000/svg">
<g id="diagnostics" clip-path="url(#clip0_1292_6923)">
<g id="Group">
<g id="XMLID_215_">
<path id="XMLID_295_" d="M42.7656 10.7812V51.4688H13.2344V10.7812H18.7031V12.9688H37.2969V10.7812H42.7656Z" fill="#43CDD7"/>
<g id="XMLID_216_">
<path id="XMLID_217_" d="M43.75 5.3125C42.6765 5.3125 35.3344 5.3125 34.1884 5.3125C33.2749 2.73103 30.8015 0.9375 28 0.9375C25.1985 0.9375 22.725 2.73103 21.8116 5.3125C20.685 5.3125 13.312 5.3125 12.25 5.3125C9.77736 5.3125 7.76562 7.32423 7.76562 9.79688V52.4531C7.76562 54.9258 9.77736 56.9375 12.25 56.9375H43.75C46.2226 56.9375 48.2344 54.9258 48.2344 52.4531V9.79688C48.2344 7.32423 46.2226 5.3125 43.75 5.3125ZM22.6408 7.5C23.161 7.5 23.6093 7.13359 23.7127 6.6238C24.1242 4.59642 25.9273 3.125 28 3.125C30.0727 3.125 31.8757 4.59642 32.2873 6.6238C32.3907 7.13359 32.839 7.5 33.3592 7.5H36.2031V11.875H19.7969V7.5H22.6408ZM46.0469 52.4531C46.0469 53.7196 45.0165 54.75 43.75 54.75H12.25C10.9835 54.75 9.95312 53.7196 9.95312 52.4531V9.79688C9.95312 8.53042 10.9835 7.5 12.25 7.5H17.6094V12.9688C17.6094 13.5727 18.099 14.0625 18.7031 14.0625H37.2969C37.9008 14.0625 38.3906 13.5727 38.3906 12.9688V7.5H43.75C45.0165 7.5 46.0469 8.53042 46.0469 9.79688V52.4531Z" fill="#5531D2"/>
<path id="XMLID_221_" d="M19.0234 23.6953C19.4508 24.1224 20.143 24.1223 20.5703 23.6953L24.9453 19.3203C25.3724 18.8932 25.3724 18.2006 24.9453 17.7734C24.5181 17.3464 23.8258 17.3464 23.3984 17.7734L19.7968 21.375L18.3827 19.9609C17.9555 19.5339 17.2632 19.5339 16.8358 19.9609C16.4087 20.388 16.4087 21.0805 16.8358 21.5078L19.0234 23.6953Z" fill="#5531D2"/>
<path id="XMLID_222_" d="M38.3906 20.7344H27.4531C26.849 20.7344 26.3594 21.224 26.3594 21.8281C26.3594 22.4322 26.849 22.9219 27.4531 22.9219H38.3906C38.9946 22.9219 39.4844 22.4322 39.4844 21.8281C39.4844 21.224 38.9946 20.7344 38.3906 20.7344Z" fill="#5531D2"/>
<path id="XMLID_223_" d="M19.0234 32.4453C19.4508 32.8724 20.143 32.8723 20.5703 32.4453L24.9453 28.0703C25.3724 27.6432 25.3724 26.9506 24.9453 26.5234C24.5181 26.0964 23.8258 26.0964 23.3984 26.5234L19.7968 30.125L18.3827 28.7109C17.9555 28.2839 17.2632 28.2839 16.8358 28.7109C16.4087 29.138 16.4087 29.8305 16.8358 30.2578L19.0234 32.4453Z" fill="#5531D2"/>
<path id="XMLID_224_" d="M38.3906 29.4844H27.4531C26.849 29.4844 26.3594 29.9742 26.3594 30.5781C26.3594 31.1821 26.849 31.6719 27.4531 31.6719H38.3906C38.9946 31.6719 39.4844 31.1821 39.4844 30.5781C39.4844 29.9742 38.9946 29.4844 38.3906 29.4844Z" fill="#5531D2"/>
<path id="XMLID_225_" d="M19.0234 41.1953C19.4508 41.6224 20.143 41.6223 20.5703 41.1953L24.9453 36.8203C25.3724 36.3932 25.3724 35.7006 24.9453 35.2734C24.5181 34.8464 23.8258 34.8464 23.3984 35.2734L19.7968 38.875L18.3827 37.4609C17.9555 37.0339 17.2632 37.0339 16.8358 37.4609C16.4087 37.888 16.4087 38.5805 16.8358 39.0078L19.0234 41.1953Z" fill="#5531D2"/>
<path id="XMLID_226_" d="M38.3906 38.2344H27.4531C26.849 38.2344 26.3594 38.7242 26.3594 39.3281C26.3594 39.9321 26.849 40.4219 27.4531 40.4219H38.3906C38.9946 40.4219 39.4844 39.9321 39.4844 39.3281C39.4844 38.7242 38.9946 38.2344 38.3906 38.2344Z" fill="#5531D2"/>
<path id="XMLID_227_" d="M38.3906 44.9062H17.6094C17.0053 44.9062 16.5156 45.396 16.5156 46C16.5156 46.604 17.0053 47.0938 17.6094 47.0938H38.3906C38.9946 47.0938 39.4844 46.604 39.4844 46C39.4844 45.396 38.9946 44.9062 38.3906 44.9062Z" fill="#5531D2"/>
</g>
</g>
</g>
</g>
<defs>
<clipPath id="clip0_1292_6923">
<rect width="56" height="56" fill="white" transform="translate(0 0.9375)"/>
</clipPath>
</defs>
</svg>
