<svg width="46" height="57" viewBox="0 0 46 57" fill="none" xmlns="http://www.w3.org/2000/svg">
<g id="drug" clip-path="url(#clip0_1292_8357)">
<g id="Group">
<path id="XMLID_1434_" d="M33.4895 48.156C31.8919 48.156 3.17712 48.156 1.58374 48.156V26.1924H33.4326V39.0264L30.8634 41.5946C30.1131 42.3449 29.738 43.3293 29.738 44.3125C29.738 46.41 31.4128 48.1059 33.4895 48.156Z" fill="#43CDD7"/>
<g id="Group_2">
<path id="XMLID_866_" d="M40.5705 47.062H37.8144C39.1869 45.6896 42.7038 42.1726 44.0617 40.8146C45.9923 38.8845 45.9926 35.7625 44.0618 33.8319C42.1373 31.9074 39.0051 31.9075 37.079 33.8319L34.5263 36.3845V20.7005C34.5263 18.2809 32.5578 16.3123 30.1382 16.3123H27.3922V13.0044H30.6868C31.2908 13.0044 31.7805 12.5146 31.7805 11.9107V5.32595C31.7805 2.90614 29.8119 0.9375 27.3922 0.9375H7.62441C5.20471 0.9375 3.23607 2.90614 3.23607 5.32595V11.9107C3.23607 12.5146 3.72585 13.0044 4.32982 13.0044H7.62441V16.3123H4.87921C2.45896 16.3123 0.48999 18.2809 0.48999 20.7005V52.5494C0.48999 54.969 2.45896 56.9375 4.87921 56.9375H40.5705C43.2978 56.9375 45.5086 54.7299 45.5086 52.0003C45.5087 49.2773 43.2935 47.062 40.5705 47.062ZM38.6256 35.379C39.6985 34.3069 41.4434 34.307 42.515 35.3788C43.5904 36.4542 43.591 38.192 42.5149 39.2679L39.7938 41.989L35.9046 38.0998L38.6256 35.379ZM27.3878 3.125H27.3922C28.6058 3.125 29.593 4.11233 29.593 5.32595V10.8169H27.3878V3.125ZM22.9949 3.125H25.2003V10.8169H22.9949V3.125ZM18.6021 3.125H20.8074V10.8169H18.6021V3.125ZM14.2092 3.125H16.4146V10.8169H14.2092V3.125ZM9.81629 3.125H12.0217V10.8169H9.81629V3.125ZM9.81191 13.0044H25.2047V16.3123H9.81191V13.0044ZM5.42357 10.8169V5.32595C5.42357 4.11233 6.41079 3.125 7.62441 3.125H7.62879V10.8169H5.42357ZM26.5946 54.75H4.87921C3.66515 54.75 2.67749 53.7629 2.67749 52.5494V20.7005C2.67749 19.487 3.66515 18.4998 4.87921 18.4998C7.32407 18.4998 25.8654 18.5001 30.1382 18.4998C31.3517 18.4998 32.3388 19.487 32.3388 20.7005V38.5731L30.09 40.8209C28.3347 42.5763 28.1968 45.2845 29.5692 47.1898C28.677 47.3954 27.8582 47.8456 27.196 48.5088C25.5057 50.1992 25.2838 52.8082 26.5946 54.75ZM34.5351 54.75C30.4983 54.7475 30.6505 54.7558 30.4813 54.7426C29.0153 54.6265 27.9366 53.4016 27.9366 52.0004C27.9366 50.5053 29.1453 49.2496 30.6873 49.2496C33.665 49.2504 34.3169 49.2496 34.5351 49.2496V54.75ZM33.5092 47.062C32.0301 47.0228 30.8317 45.8157 30.8317 44.3123C30.8317 43.5775 31.1176 42.887 31.6366 42.3679C31.6483 42.3562 33.7818 40.2228 34.3578 39.6467L38.2469 43.5358L35.5258 46.257C34.6444 47.1385 33.5294 47.058 33.5092 47.062ZM40.5705 54.75H36.7225V49.2495H40.5705C42.0872 49.2495 43.3211 50.4835 43.3211 52.0003C43.3212 53.516 42.0941 54.75 40.5705 54.75Z" fill="#5531D2"/>
<path id="XMLID_1398_" d="M22.9993 33.8832H20.7987V31.6826C20.7987 31.0785 20.3089 30.5889 19.7049 30.5889H15.3113C14.7074 30.5889 14.2176 31.0785 14.2176 31.6826V33.8832H12.017C11.413 33.8832 10.9232 34.373 10.9232 34.977V39.3706C10.9232 39.9747 11.413 40.4643 12.017 40.4643H14.2176V42.665C14.2176 43.2689 14.7074 43.7587 15.3113 43.7587H19.7049C20.3089 43.7587 20.7987 43.2689 20.7987 42.665V40.4643H22.9993C23.6033 40.4643 24.0931 39.9747 24.0931 39.3706V34.977C24.0931 34.3729 23.6034 33.8832 22.9993 33.8832ZM21.9056 38.2768H19.7049C19.1009 38.2768 18.6112 38.7666 18.6112 39.3706V41.5712H16.4051V39.3706C16.4051 38.7666 15.9153 38.2768 15.3113 38.2768H13.1107V36.0707H15.3113C15.9153 36.0707 16.4051 35.581 16.4051 34.977V32.7764H18.6112V34.977C18.6112 35.581 19.1009 36.0707 19.7049 36.0707H21.9056V38.2768Z" fill="#5531D2"/>
</g>
</g>
</g>
<defs>
<clipPath id="clip0_1292_8357">
<rect width="46" height="56" fill="white" transform="translate(0 0.9375)"/>
</clipPath>
</defs>
</svg>
