<svg width="56" height="57" viewBox="0 0 56 57" fill="none" xmlns="http://www.w3.org/2000/svg">
<g id="honor" clip-path="url(#clip0_1292_5366)">
<g id="Group">
<g id="Group_2">
<g id="Group_3">
<path id="Vector" d="M28 32.9004C34.6447 32.9004 40.0312 27.5138 40.0312 20.8691C40.0312 14.2245 34.6447 8.83789 28 8.83789C21.3553 8.83789 15.9688 14.2245 15.9688 20.8691C15.9688 27.5138 21.3553 32.9004 28 32.9004Z" fill="#43CDD7"/>
<g id="Group_4">
<path id="Vector_2" d="M33.759 17.8323L30.4573 17.3525L28.9807 14.3606C28.7964 13.9872 28.4163 13.751 27.9999 13.751C27.5835 13.751 27.2034 13.9872 27.0191 14.3606L25.5425 17.3525L22.2408 17.8323C21.8288 17.8921 21.4865 18.1809 21.3579 18.5768C21.2292 18.9726 21.3366 19.4074 21.6346 19.6979L24.0238 22.0266L23.4598 25.3151C23.3894 25.7252 23.5581 26.1399 23.895 26.3847C24.2316 26.6294 24.6782 26.6615 25.0468 26.468L27.9999 24.9154L30.9531 26.468C31.1131 26.552 31.2879 26.5936 31.4619 26.5936C31.6886 26.5936 31.9144 26.523 32.1049 26.3847C32.4417 26.1399 32.6103 25.7252 32.54 25.3151L31.9759 22.0266L34.3651 19.6979C34.6633 19.4074 34.7706 18.9726 34.6419 18.5768C34.5132 18.1808 34.171 17.8921 33.759 17.8323ZM30.0374 20.8614C29.7796 21.1129 29.662 21.4747 29.7229 21.8296L30.0095 23.5003L28.5089 22.7116C28.3496 22.6279 28.1747 22.5861 28 22.5861C27.8252 22.5861 27.6504 22.628 27.4911 22.7116L25.9906 23.5003L26.2772 21.8296C26.3381 21.4748 26.2203 21.1129 25.9626 20.8614L24.7487 19.6784L26.4262 19.4346C26.7825 19.3827 27.0904 19.159 27.2497 18.8363L27.9999 17.3162L28.7501 18.8363C28.9094 19.159 29.2174 19.3827 29.5736 19.4346L31.2511 19.6784L30.0374 20.8614Z" fill="#5531D2"/>
<path id="Vector_3" d="M55.769 49.5936L43.4971 33.8436L44.384 33.4371C44.7313 33.2779 44.9701 32.9492 45.0147 32.5697L45.7092 26.6238L48.6411 21.4054C48.828 21.0726 48.828 20.6665 48.6411 20.3338L45.7092 15.1155L45.0147 9.1695C44.9702 8.79008 44.7313 8.4613 44.384 8.30194L38.942 5.80754L34.8902 1.40049C34.6311 1.11885 34.2438 0.99263 33.8686 1.06865L28.0001 2.25361L22.1313 1.06865C21.7563 0.99263 21.3687 1.11863 21.1097 1.40049L17.0579 5.80754L11.6159 8.30194C11.2686 8.4613 11.0297 8.79008 10.9852 9.1695L10.2907 15.1155L7.35881 20.3338C7.17189 20.6665 7.17189 21.0726 7.35881 21.4054L10.2907 26.6238L10.9852 32.5697C11.0295 32.9492 11.2686 33.2779 11.6159 33.4371L12.5028 33.8436L0.230954 49.5936C-0.052327 49.9572 -0.0772645 50.4594 0.16861 50.8493C0.414595 51.2392 0.878673 51.4331 1.32853 51.334L10.1307 49.3994L11.0579 55.8893C11.1349 56.4283 11.5968 56.8286 12.141 56.8286C12.56 56.8283 12.9488 56.5872 13.1308 56.199L20.7534 39.951L21.1097 40.3385C21.37 40.6216 21.7587 40.7462 22.1313 40.6703L28 39.4853L33.8686 40.6703C34.6778 40.8352 35.0533 40.1044 35.2465 39.951L42.869 56.199C43.0512 56.5872 43.4399 56.8286 43.8589 56.8286C44.407 56.8273 44.8654 56.4258 44.942 55.8893L45.8692 49.3994L54.6715 51.334C55.1216 51.4327 55.5854 51.2392 55.8313 50.8493C56.0773 50.4594 56.0523 49.9572 55.769 49.5936ZM12.7055 51.9551L12.1295 47.9237C12.04 47.2959 11.4349 46.8733 10.812 47.0101L3.81966 48.5468L14.5462 34.7803L17.0579 35.9315L19.1535 38.2109L12.7055 51.9551ZM33.6972 38.4042L28.2165 37.2975C28.0764 37.2693 27.9298 37.2679 27.7834 37.2975L22.3027 38.4042L18.5191 34.2888C18.4207 34.1817 18.3019 34.0955 18.1698 34.0348L13.0868 31.7048L12.4383 26.1523C12.4215 26.0086 12.3764 25.8694 12.3055 25.7434L9.56699 20.8696L12.3053 15.9957C12.3762 15.8695 12.4213 15.7306 12.4381 15.5869L13.0866 10.0341L18.1695 7.7041C18.3017 7.64339 18.4205 7.5571 18.5189 7.45013L22.3025 3.3349L27.7832 4.44144C27.9261 4.47032 28.0733 4.47032 28.2163 4.44144L33.697 3.3349L37.4806 7.45013C37.579 7.55721 37.6978 7.6435 37.83 7.7041L42.913 10.0341L43.5616 15.5869C43.5783 15.7306 43.6235 15.8695 43.6944 15.9957L46.4327 20.8696L43.6944 25.7434C43.6236 25.8694 43.5783 26.0086 43.5616 26.1523L42.913 31.7048L37.83 34.0348C37.6978 34.0955 37.579 34.1818 37.4806 34.2888L33.6972 38.4042ZM45.1879 47.0101C44.5646 46.8731 43.9598 47.2962 43.8704 47.9237L43.2944 51.9551L36.8463 38.2111L38.942 35.9315L41.4537 34.7803L52.1801 48.5468L45.1879 47.0101Z" fill="#5531D2"/>
</g>
</g>
</g>
</g>
</g>
<defs>
<clipPath id="clip0_1292_5366">
<rect width="56" height="56" fill="white" transform="translate(0 0.9375)"/>
</clipPath>
</defs>
</svg>
